<?xml version="1.0" encoding="UTF-8"?>
<svg version="1.1" xmlns="http://www.w3.org/2000/svg" width="431" height="86">
<path d="M0 0 C1.67334039 0.98879205 3.34151823 1.98648336 5 3 C7.7004039 2.35336433 7.7004039 2.35336433 10 1 C13.72466849 -0.86233425 17.94495313 -0.57130829 22 0 C25.12578143 1.6720747 27.39281175 3.7856235 29 7 C29.08639869 9.40838678 29.11567764 11.78733881 29.09765625 14.1953125 C29.0962413 14.90275604 29.09482635 15.61019958 29.09336853 16.33908081 C29.087766 18.60109669 29.07521318 20.86301398 29.0625 23.125 C29.05748532 24.65755065 29.05292236 26.19010286 29.04882812 27.72265625 C29.03779577 31.48180888 29.02052952 35.24088772 29 39 C26.03 39 23.06 39 20 39 C19.97494385 38.19780029 19.9498877 37.39560059 19.92407227 36.5690918 C19.80817957 32.94172926 19.68542249 29.31463083 19.5625 25.6875 C19.52318359 24.42486328 19.48386719 23.16222656 19.44335938 21.86132812 C19.40146484 20.65283203 19.35957031 19.44433594 19.31640625 18.19921875 C19.26141968 16.52605591 19.26141968 16.52605591 19.20532227 14.8190918 C19.11068791 11.92126429 19.11068791 11.92126429 18 9 C15.09640126 8.11278927 13.63074146 7.68094874 10.86621094 9.0793457 C8.22645836 11.79610833 8.45839437 13.67371083 8.390625 17.41796875 C8.35839844 18.67158203 8.32617188 19.92519531 8.29296875 21.21679688 C8.27169922 23.18229492 8.27169922 23.18229492 8.25 25.1875 C8.22184019 26.52282536 8.19191271 27.8581147 8.16015625 29.19335938 C8.08934884 32.46230149 8.03670367 35.73052579 8 39 C4.7 39 1.4 39 -2 39 C-2.01981934 38.13197754 -2.03963867 37.26395508 -2.06005859 36.36962891 C-2.13809872 33.15273733 -2.22478881 29.93622955 -2.31738281 26.71972656 C-2.35569327 25.32691428 -2.39054259 23.93400235 -2.421875 22.54101562 C-2.46747907 20.54013692 -2.52651623 18.53957854 -2.5859375 16.5390625 C-2.63306885 14.73236084 -2.63306885 14.73236084 -2.68115234 12.88916016 C-2.70915226 9.8739982 -2.70915226 9.8739982 -5 8 C-7.66783303 8.20521793 -9.43915525 8.59927647 -11.62817383 10.16333008 C-13.61029391 12.8170922 -13.43459052 14.91355601 -13.51171875 18.19921875 C-13.54716797 19.40771484 -13.58261719 20.61621094 -13.61914062 21.86132812 C-13.65297852 23.7552832 -13.65297852 23.7552832 -13.6875 25.6875 C-13.72166016 26.96173828 -13.75582031 28.23597656 -13.79101562 29.54882812 C-13.87360784 32.69913103 -13.94272335 35.84915157 -14 39 C-16.97 39 -19.94 39 -23 39 C-23 26.46 -23 13.92 -23 1 C-20.36 1 -17.72 1 -15 1 C-15 1.66 -15 2.32 -15 3 C-14.195625 2.505 -13.39125 2.01 -12.5625 1.5 C-8.21153977 -0.33198325 -4.6620799 -0.69195991 0 0 Z " fill="#555CEE" transform="translate(138,25)"/>
<path d="M0 0 C0.85464844 -0.01417969 1.70929688 -0.02835938 2.58984375 -0.04296875 C5.20159303 0.20046444 6.81750652 0.8696732 9.0625 2.1875 C9.3925 1.8575 9.7225 1.5275 10.0625 1.1875 C11.58178038 1.11570036 13.10417482 1.10357993 14.625 1.125 C15.45128906 1.13402344 16.27757812 1.14304687 17.12890625 1.15234375 C17.76699219 1.16394531 18.40507812 1.17554687 19.0625 1.1875 C19.13693429 6.89832747 19.19123634 12.6088694 19.22729492 18.32006836 C19.24233491 20.26087364 19.26277214 22.2016452 19.28881836 24.14233398 C19.32541295 26.94002632 19.34227448 29.73726733 19.35546875 32.53515625 C19.37095261 33.3958522 19.38643646 34.25654816 19.40238953 35.14332581 C19.40406124 41.19533971 18.64115849 46.23211054 14.51171875 50.96484375 C8.11661569 55.17625308 1.50730976 55.03330087 -5.9375 54.1875 C-8.60724758 53.44048001 -10.51779946 52.57018602 -12.9375 51.1875 C-12.6075 49.5375 -12.2775 47.8875 -11.9375 46.1875 C-7.5591764 44.87400292 -3.7720277 45.4664689 0.66015625 46.12890625 C3.45124002 46.19698146 4.80237553 45.81783698 7.0625 44.1875 C7.88120185 40.62543339 7.88120185 40.62543339 8.0625 37.1875 C7.50304687 37.50976562 6.94359375 37.83203125 6.3671875 38.1640625 C2.36887191 39.9395857 -1.65087595 39.73602535 -5.9375 39.1875 C-10.41785444 36.98805327 -12.80062614 34.68618182 -14.9375 30.1875 C-17.41103548 22.23067259 -16.67705893 13.53766756 -12.9375 6.1875 C-8.91184578 1.45735629 -6.12808881 0.04607586 0 0 Z M-3.9375 9.1875 C-6.16126677 12.61481079 -6.2360242 15.59530973 -6.25 19.625 C-6.27513672 21.29369141 -6.27513672 21.29369141 -6.30078125 22.99609375 C-5.89924928 26.52353055 -5.08877337 28.38678561 -2.9375 31.1875 C-0.12892252 32.44760343 -0.12892252 32.44760343 3.0625 32.1875 C6.36747079 30.83914137 6.36747079 30.83914137 9.0625 28.1875 C9.87784147 25.3081263 9.7678993 22.59580114 9.625 19.625 C9.62306641 18.85736328 9.62113281 18.08972656 9.61914062 17.29882812 C9.51983541 13.00705745 9.51983541 13.00705745 7.7109375 9.2109375 C3.81732419 6.79357568 -0.22587981 6.40378486 -3.9375 9.1875 Z " fill="#555CEF" transform="translate(231.9375,24.8125)"/>
<path d="M0 0 C4.29 0 8.58 0 13 0 C16.6440818 8.64142699 19.54895959 17.48035231 22.42871094 26.39770508 C23.25656964 28.95781629 24.09283541 31.51508195 24.9296875 34.07226562 C25.45883844 35.70296118 25.98750225 37.33381491 26.515625 38.96484375 C26.8905307 40.1085569 26.8905307 40.1085569 27.27301025 41.27537537 C28.24214835 44.29469089 29 46.807898 29 50 C25.7 50 22.4 50 19 50 C18.32942113 48.2097939 17.6636531 46.41778511 17 44.625 C16.62875 43.62726562 16.2575 42.62953125 15.875 41.6015625 C15 39 15 39 15 37 C9.39 37 3.78 37 -2 37 C-2.33 39.31 -2.66 41.62 -3 44 C-3.62256028 46.01416562 -4.27566653 48.02015519 -5 50 C-8.3 50 -11.6 50 -15 50 C-13.77325079 43.42929482 -12.26242115 37.1397324 -10.21484375 30.78125 C-9.82311729 29.54441467 -9.82311729 29.54441467 -9.42347717 28.28259277 C-8.87716294 26.56097919 -8.32834871 24.84015702 -7.77709961 23.12011719 C-6.93116798 20.48023983 -6.09288172 17.83802677 -5.25585938 15.1953125 C-4.72179008 13.51548635 -4.18730028 11.83579382 -3.65234375 10.15625 C-3.40129379 9.3667395 -3.15024384 8.577229 -2.8915863 7.76379395 C-1.11748195 2.2349639 -1.11748195 2.2349639 0 0 Z M6 9 C5.16193384 11.93622464 4.32937556 14.87382067 3.5 17.8125 C3.26152344 18.64587891 3.02304687 19.47925781 2.77734375 20.33789062 C2.55175781 21.14033203 2.32617188 21.94277344 2.09375 22.76953125 C1.77954102 23.87711792 1.77954102 23.87711792 1.45898438 25.00708008 C0.88778387 27.14639637 0.88778387 27.14639637 1 30 C4.96 30 8.92 30 13 30 C11.02 23.07 9.04 16.14 7 9 C6.67 9 6.34 9 6 9 Z " fill="#555CEE" transform="translate(361,14)"/>
<path d="M0 0 C4.61664089 0.18843432 7.30109224 1.0128429 11.125 3.625 C14.05922844 5.59784534 14.05922844 5.59784534 17.5 6.125 C20.57312068 4.74209569 23.25286541 2.92992962 26.0625 1.078125 C28.4768072 -0.26532014 30.28228374 -0.42464317 33 0 C33.495 2.475 33.495 2.475 34 5 C32.60974609 5.79664063 32.60974609 5.79664063 31.19140625 6.609375 C29.98138218 7.3222574 28.77176783 8.03583554 27.5625 8.75 C26.95083984 9.09804688 26.33917969 9.44609375 25.70898438 9.8046875 C22.2015053 11.76571709 22.2015053 11.76571709 20.31616211 15.13378906 C20.15966187 16.05756348 20.15966187 16.05756348 20 17 C20.61520508 16.63124756 21.23041016 16.26249512 21.86425781 15.88256836 C24.65204635 14.22130508 27.45070269 12.57928971 30.25 10.9375 C31.21808594 10.35677734 32.18617187 9.77605469 33.18359375 9.17773438 C34.11816406 8.63310547 35.05273438 8.08847656 36.015625 7.52734375 C36.87446289 7.01937256 37.73330078 6.51140137 38.61816406 5.98803711 C41.29162267 4.8790286 42.34839803 4.96673405 45 6 C45.495 7.98 45.495 7.98 46 10 C41.47770622 13.91621317 36.47786582 16.78390448 31.3125 19.75 C30.44560547 20.25660156 29.57871094 20.76320313 28.68554688 21.28515625 C27.85732422 21.76339844 27.02910156 22.24164063 26.17578125 22.734375 C25.42208252 23.16975586 24.66838379 23.60513672 23.8918457 24.05371094 C22 25 22 25 20 25 C20.00523682 26.26183105 20.01047363 27.52366211 20.01586914 28.82373047 C20.03393458 33.49397068 20.04543769 38.16420779 20.05493164 42.83447266 C20.05996831 44.85791543 20.06679789 46.88135456 20.07543945 48.90478516 C20.08753412 51.80892843 20.09323488 54.71302369 20.09765625 57.6171875 C20.10281754 58.52556366 20.10797882 59.43393982 20.11329651 60.36984253 C20.11337204 61.21056305 20.11344757 62.05128357 20.11352539 62.91748047 C20.115746 63.65916473 20.11796661 64.400849 20.12025452 65.16500854 C20 67 20 67 19 69 C17.35 69 15.7 69 14 69 C12.85684253 66.71368506 12.87887268 65.45652594 12.88647461 62.91748047 C12.88655014 62.07675995 12.88662567 61.23603943 12.88670349 60.36984253 C12.89186478 59.46146637 12.89702606 58.55309021 12.90234375 57.6171875 C12.9037587 56.68778351 12.90517365 55.75837952 12.90663147 54.80081177 C12.91223947 51.82550876 12.92479332 48.85028036 12.9375 45.875 C12.94251397 43.86067817 12.94707705 41.84635516 12.95117188 39.83203125 C12.9622115 34.88799198 12.97948151 29.94400865 13 25 C12.27006836 24.72293213 11.54013672 24.44586426 10.78808594 24.16040039 C8.17924205 23.07460048 5.83061004 21.85262684 3.390625 20.43359375 C2.55402344 19.94826172 1.71742187 19.46292969 0.85546875 18.96289062 C-0.00433594 18.45951172 -0.86414063 17.95613281 -1.75 17.4375 C-2.62527344 16.93025391 -3.50054687 16.42300781 -4.40234375 15.90039062 C-10.85776612 12.14223388 -10.85776612 12.14223388 -12 11 C-12.04063832 9.33382885 -12.042721 7.66611905 -12 6 C-9.34839803 4.96673405 -8.29162267 4.8790286 -5.61816406 5.98803711 C-4.32990723 6.7499939 -4.32990723 6.7499939 -3.015625 7.52734375 C-2.08105469 8.07197266 -1.14648438 8.61660156 -0.18359375 9.17773438 C0.78449219 9.75845703 1.75257812 10.33917969 2.75 10.9375 C3.73355469 11.51435547 4.71710937 12.09121094 5.73046875 12.68554688 C8.16035872 14.11281234 10.5829083 15.55120106 13 17 C12.70080203 15.0509923 12.70080203 15.0509923 12 13 C8.99785336 11.0494774 5.87774221 9.5003619 2.6875 7.87890625 C0 6 0 6 -0.9375 3.33984375 C-0.958125 2.56769531 -0.97875 1.79554687 -1 1 C-0.67 0.67 -0.34 0.34 0 0 Z " fill="#659DF6" transform="translate(20,10)"/>
<path d="M0 0 C3.63 0 7.26 0 11 0 C12.17324446 3.9148055 13.3388305 7.83161336 14.5 11.75 C14.83386719 12.86117187 15.16773438 13.97234375 15.51171875 15.1171875 C15.82753906 16.18710937 16.14335937 17.25703125 16.46875 18.359375 C16.76201172 19.34389648 17.05527344 20.32841797 17.35742188 21.34277344 C18 24 18 24 18 28 C18.66 28 19.32 28 20 28 C20.1134375 26.88496094 20.226875 25.76992188 20.34375 24.62109375 C20.96641472 19.64744966 22.19403645 14.89456515 23.5 10.0625 C23.72558594 9.20076172 23.95117188 8.33902344 24.18359375 7.45117188 C25.86624765 1.13375235 25.86624765 1.13375235 27 0 C28.68608966 -0.07205511 30.37500659 -0.08386068 32.0625 -0.0625 C32.98160156 -0.05347656 33.90070313 -0.04445313 34.84765625 -0.03515625 C35.55792969 -0.02355469 36.26820313 -0.01195313 37 0 C35.37210097 5.53416755 33.73607753 11.06584617 32.09277344 16.59545898 C31.53589493 18.47339139 30.9811672 20.35196307 30.42871094 22.23120117 C29.63012572 24.94624676 28.82360291 27.65883057 28.015625 30.37109375 C27.77378479 31.19959335 27.53194458 32.02809296 27.28277588 32.88169861 C22.73827037 48.03624925 22.73827037 48.03624925 18 52 C14.85069107 53.04976964 12.61185544 53.10131595 9.3125 53.0625 C8.31863281 53.05347656 7.32476562 53.04445312 6.30078125 53.03515625 C5.16189453 53.01775391 5.16189453 53.01775391 4 53 C4.33 50.36 4.66 47.72 5 45 C7.97 45 10.94 45 14 45 C14.66 42.69 15.32 40.38 16 38 C14.68 38 13.36 38 12 38 C8.04 25.46 4.08 12.92 0 0 Z " fill="#555CEE" transform="translate(307,26)"/>
<path d="M0 0 C2.79278541 2.23422833 3.63658422 3.005763 4.8125 6.25 C5.03955078 9.54980469 5.03955078 9.54980469 5.0078125 13.421875 C5.0049826 14.1042926 5.00215271 14.78671021 4.99923706 15.48980713 C4.98808098 17.66005307 4.96298557 19.82987971 4.9375 22 C4.92746426 23.47525444 4.91833944 24.95051537 4.91015625 26.42578125 C4.88815687 30.03398942 4.85365883 33.64195375 4.8125 37.25 C2.1725 37.25 -0.4675 37.25 -3.1875 37.25 C-3.5175 36.59 -3.8475 35.93 -4.1875 35.25 C-4.785625 35.745 -5.38375 36.24 -6 36.75 C-10.70977096 38.9663628 -15.06766696 38.92563779 -20.1875 38.25 C-23.7350148 36.56959825 -25.48653879 35.31668009 -27.625 32.0625 C-28.44897429 27.94262854 -28.45843086 24.28191859 -27.1875 20.25 C-24.74731193 17.15227622 -21.93198663 15.49816221 -18.1875 14.25 C-15.95931559 14.18062938 -13.72915476 14.16542916 -11.5 14.1875 C-9.73076172 14.20103516 -9.73076172 14.20103516 -7.92578125 14.21484375 C-7.02214844 14.22644531 -6.11851562 14.23804688 -5.1875 14.25 C-5.8475 11.94 -6.5075 9.63 -7.1875 7.25 C-13.03090558 6.00672222 -17.45446495 6.67699038 -23.1875 8.25 C-24.6481285 5.60261084 -25.1875 4.35551666 -25.1875 1.25 C-17.5241331 -2.35629031 -7.83783359 -4.14847677 0 0 Z M-17.1875 22.25 C-18.00334568 25.30908413 -18.00334568 25.30908413 -18.1875 28.25 C-16.55040685 29.93864588 -16.55040685 29.93864588 -14.1875 31.25 C-10.31023569 31.01261647 -8.44673117 30.42282078 -5.1875 28.25 C-4.82452064 26.27252878 -4.82452064 26.27252878 -5 24.125 C-5.061875 22.84625 -5.12375 21.5675 -5.1875 20.25 C-11.61168376 19.71834365 -11.61168376 19.71834365 -17.1875 22.25 Z " fill="#555CEE" transform="translate(202.1875,26.75)"/>
<path d="M0 0 C1.07507813 -0.00257812 2.15015625 -0.00515625 3.2578125 -0.0078125 C5.875 0.125 5.875 0.125 6.875 1.125 C6.58769945 3.46444736 6.25563221 5.7989143 5.875 8.125 C2.905 8.125 -0.065 8.125 -3.125 8.125 C-3.455 10.765 -3.785 13.405 -4.125 16.125 C-1.155 16.125 1.815 16.125 4.875 16.125 C4.875 18.435 4.875 20.745 4.875 23.125 C1.905 23.125 -1.065 23.125 -4.125 23.125 C-4.125 33.355 -4.125 43.585 -4.125 54.125 C-7.425 54.125 -10.725 54.125 -14.125 54.125 C-14.125 43.895 -14.125 33.665 -14.125 23.125 C-15.775 23.125 -17.425 23.125 -19.125 23.125 C-19.125 20.815 -19.125 18.505 -19.125 16.125 C-17.475 16.125 -15.825 16.125 -14.125 16.125 C-14.09921875 15.46113281 -14.0734375 14.79726563 -14.046875 14.11328125 C-13.69523826 8.63893662 -13.38386018 5.0080784 -9.125 1.125 C-5.87030985 0.04010328 -3.41956791 -0.00823992 0 0 Z " fill="#555CEE" transform="translate(300.125,9.875)"/>
<path d="M0 0 C7.26 0 14.52 0 22 0 C22 2.31 22 4.62 22 7 C20.02 7 18.04 7 16 7 C16 18.88 16 30.76 16 43 C17.98 43 19.96 43 22 43 C22 45.31 22 47.62 22 50 C14.74 50 7.48 50 0 50 C0 47.69 0 45.38 0 43 C1.98 43 3.96 43 6 43 C6 31.12 6 19.24 6 7 C4.02 7 2.04 7 0 7 C0 4.69 0 2.38 0 0 Z " fill="#555CEF" transform="translate(396,14)"/>
<path d="M0 0 C7.26 0 14.52 0 22 0 C22 2.31 22 4.62 22 7 C20.02 7 18.04 7 16 7 C16 18.88 16 30.76 16 43 C17.98 43 19.96 43 22 43 C22 45.31 22 47.62 22 50 C14.74 50 7.48 50 0 50 C0 47.69 0 45.38 0 43 C1.98 43 3.96 43 6 43 C6 31.12 6 19.24 6 7 C4.02 7 2.04 7 0 7 C0 4.69 0 2.38 0 0 Z " fill="#555CEF" transform="translate(82,14)"/>
<path d="M0 0 C5.28 0 10.56 0 16 0 C16 12.54 16 25.08 16 38 C12.7 38 9.4 38 6 38 C6 27.77 6 17.54 6 7 C4.02 7 2.04 7 0 7 C0 4.69 0 2.38 0 0 Z " fill="#555CEF" transform="translate(257,26)"/>
<path d="M0 0 C5.01087126 0.34959567 8.27014193 1.6214305 12 5 C12.77452206 8.2517783 12.61257152 11.36607276 12.4375 14.6875 C12.41880859 15.56728516 12.40011719 16.44707031 12.38085938 17.35351562 C12.1968688 23.8031312 12.1968688 23.8031312 11 25 C5.33380636 24.63605053 1.40679353 22.99642136 -3.375 20.1875 C-4.00277344 19.84396484 -4.63054688 19.50042969 -5.27734375 19.14648438 C-9.73446391 16.58099297 -9.73446391 16.58099297 -10.9765625 13.86328125 C-11 12 -11 12 -10 10 C-3.51537118 8.97611124 0.83877972 12.57278653 6 16 C6 13.69 6 11.38 6 9 C5.21625 8.690625 4.4325 8.38125 3.625 8.0625 C1 7 1 7 -1 6 C-1.042721 4.33388095 -1.04063832 2.66617115 -1 1 C-0.67 0.67 -0.34 0.34 0 0 Z " fill="#AECBFA" transform="translate(17,33)"/>
<path d="M0 0 C-0.1875 2.3125 -0.1875 2.3125 -1 5 C-1.825 5.45375 -2.65 5.9075 -3.5 6.375 C-6.42072077 7.85766358 -6.42072077 7.85766358 -6.8125 11.6875 C-6.874375 12.780625 -6.93625 13.87375 -7 15 C-6.34773438 14.566875 -5.69546875 14.13375 -5.0234375 13.6875 C3.6572935 8.15641476 3.6572935 8.15641476 9 9 C9.25390625 11.30859375 9.25390625 11.30859375 9 14 C7.27734375 15.66015625 7.27734375 15.66015625 4.9375 17.0625 C4.11636719 17.56136719 3.29523437 18.06023438 2.44921875 18.57421875 C1.23685547 19.27998047 1.23685547 19.27998047 0 20 C-0.65355469 20.41894531 -1.30710937 20.83789062 -1.98046875 21.26953125 C-5.41312322 23.41399309 -7.93120393 24.59835236 -12 24 C-14.2707796 21.7292204 -13.46611679 16.79391628 -13.5625 13.75 C-13.62501953 12.89019531 -13.68753906 12.03039062 -13.75195312 11.14453125 C-13.81821569 8.53820369 -13.76191071 6.49762282 -13 4 C-9.28729022 0.25294263 -5.18761633 -2.10746914 0 0 Z " fill="#4185F3" transform="translate(57,34)"/>
<path d="M0 0 C4.5299734 1.81505706 8.63717663 4.09982937 12.8359375 6.57421875 C13.66738281 7.03119141 14.49882812 7.48816406 15.35546875 7.95898438 C17.62946109 9.30508329 19.58310222 10.52559839 21.4609375 12.38671875 C22 16.25 22 16.25 21.4609375 19.38671875 C16.22425284 18.86617356 12.29866213 16.17829265 7.8984375 13.51171875 C7.14369141 13.06441406 6.38894531 12.61710937 5.61132812 12.15625 C-2.24759833 7.46166662 -2.24759833 7.46166662 -4.5390625 5.38671875 C-4.7890625 2.69921875 -4.7890625 2.69921875 -4.5390625 0.38671875 C-2.5390625 -0.61328125 -2.5390625 -0.61328125 0 0 Z " fill="#ADCAFA" transform="translate(12.5390625,15.61328125)"/>
<path d="M0 0 C6.48463627 0.27594197 11.07074377 2.78610069 16 7 C16 7.66 16 8.32 16 9 C15.34 9 14.68 9 14 9 C14 10.32 14 11.64 14 13 C8.19657726 11.51194289 3.82409121 8.40902445 -1 5 C-0.67 3.35 -0.34 1.7 0 0 Z " fill="#AECBFA" transform="translate(20,10)"/>
<path d="M0 0 C1.9375 1.6875 1.9375 1.6875 3 4 C2.75925978 7.37036311 2.41201979 8.58798021 0 11 C-3.09771665 11.32954432 -5.17331023 11.45334601 -7.9375 9.9375 C-9.64787795 6.81857551 -8.80513863 4.34442199 -8 1 C-5.17116253 -0.41441874 -3.12623255 -0.31900332 0 0 Z " fill="#555CEF" transform="translate(271,9)"/>
<path d="M0 0 C2.125 0.375 2.125 0.375 4 1 C4.625 3.375 4.625 3.375 5 6 C4.34 6.66 3.68 7.32 3 8 C0.875 7.625 0.875 7.625 -1 7 C-1.625 4.625 -1.625 4.625 -2 2 C-1.34 1.34 -0.68 0.68 0 0 Z " fill="#669BF6" transform="translate(35,5)"/>
<path d="M0 0 C0.38218767 1.65614657 0.71395102 3.32457024 1 5 C0 6 0 6 -2.5 6.125 C-5 6 -5 6 -6 5 C-6.04063832 3.33382885 -6.042721 1.66611905 -6 0 C-3.50907189 -1.24546405 -2.58919267 -0.7767578 0 0 Z " fill="#4087F4" transform="translate(64,29)"/>
<path d="M0 0 C2.625 0.375 2.625 0.375 5 1 C5.042721 2.66611905 5.04063832 4.33382885 5 6 C4 7 4 7 1.4375 7.0625 C0.2309375 7.0315625 0.2309375 7.0315625 -1 7 C-1.625 4.625 -1.625 4.625 -2 2 C-1.34 1.34 -0.68 0.68 0 0 Z " fill="#AFCBF9" transform="translate(10,28)"/>
</svg>
